<?xml version="1.0" encoding="utf-8"?>
<!-- Generator: Adobe Illustrator 21.0.0, SVG Export Plug-In . SVG Version: 6.00 Build 0)  -->
<svg version="1.1" id="Capa_1" xmlns="http://www.w3.org/2000/svg" xmlns:xlink="http://www.w3.org/1999/xlink" x="0px" y="0px"
	 viewBox="0 0 50 50" style="enable-background:new 0 0 50 50;" xml:space="preserve">
<g>
	<g id="_x38__3_">
		<g>
			<path d="M25,0C11.2,0,0,11.2,0,25s11.2,25,25,25s25-11.2,25-25S38.8,0,25,0z M25,46.9C12.9,46.9,3.1,37.1,3.1,25S12.9,3.1,25,3.1
				S46.9,12.9,46.9,25S37.1,46.9,25,46.9z M34.4,23.4h-7.8v-7.8c0-0.9-0.7-1.6-1.6-1.6s-1.6,0.7-1.6,1.6v7.8h-7.8
				c-0.9,0-1.6,0.7-1.6,1.6s0.7,1.6,1.6,1.6h7.8v7.8c0,0.9,0.7,1.6,1.6,1.6s1.6-0.7,1.6-1.6v-7.8h7.8c0.9,0,1.6-0.7,1.6-1.6
				S35.2,23.4,34.4,23.4z"/>
		</g>
	</g>
</g>
</svg>
