<?xml version="1.0" encoding="iso-8859-1"?>
<!-- Generator: Adobe Illustrator 19.0.0, SVG Export Plug-In . SVG Version: 6.00 Build 0)  -->
<svg version="1.1" id="Capa_1" xmlns="http://www.w3.org/2000/svg" xmlns:xlink="http://www.w3.org/1999/xlink" x="0px" y="0px"
	 viewBox="0 0 512.003 512.003" style="enable-background:new 0 0 512.003 512.003;" xml:space="preserve">
<path id="SVGCleanerId_0" style="fill:#F3853A;" d="M295.002,497.067c35.938,16.41,76.472,23.138,100.923,0
	c12.882-13.407,25.042-27.487,36.431-42.174c11.323-14.162,9.026-34.806-5.136-46.129c-0.41-0.328-0.837-0.656-1.264-0.968
	l-84.677-61.703c-10.617-7.713-24.829-8.369-36.103-1.641l-47.097,28.718l0,0c-43.307-29.358-81.083-66.133-111.59-108.636
	l-5.744-8.041l28.39-47.59c6.728-11.274,6.072-25.485-1.641-36.103l-61.538-84.677c-10.617-14.687-31.147-17.986-45.834-7.368
	c-0.427,0.312-0.853,0.64-1.264,0.968c-14.687,11.389-28.767,23.549-42.174,36.431c-23.138,24.451-15.097,64.656,0,100.923
	C64.274,332.964,179.638,445.703,295.002,497.067z"/>
<g style="opacity:0.4;">
	<path style="fill:#F3853A;" d="M358.51,276.677c-18.133,0-32.821-14.687-32.821-32.821c0-33.017-26.716-59.799-59.733-59.897
		c-18.133,0-32.821-14.687-32.821-32.821s14.687-32.821,32.821-32.821c69.268,0.098,125.374,56.271,125.374,125.538
		C391.33,261.99,376.627,276.677,358.51,276.677z"/>
</g>
<g style="opacity:0.4;">
	<path style="fill:#F3853A;" d="M476.992,261.251c-18.133,0-32.82-14.687-32.82-32.821c-0.098-89.863-72.927-162.691-162.79-162.79
		c-18.133,0-32.821-14.687-32.821-32.821S263.248,0,281.382,0c126.08,0.181,228.25,102.351,228.431,228.431
		C509.813,246.564,495.109,261.251,476.992,261.251z"/>
</g>
<g>
	<path id="SVGCleanerId_0_1_" style="fill:#F3853A;" d="M295.002,497.067c35.938,16.41,76.472,23.138,100.923,0
		c12.882-13.407,25.042-27.487,36.431-42.174c11.323-14.162,9.026-34.806-5.136-46.129c-0.41-0.328-0.837-0.656-1.264-0.968
		l-84.677-61.703c-10.617-7.713-24.829-8.369-36.103-1.641l-47.097,28.718l0,0c-43.307-29.358-81.083-66.133-111.59-108.636
		l-5.744-8.041l28.39-47.59c6.728-11.274,6.072-25.485-1.641-36.103l-61.538-84.677c-10.617-14.687-31.147-17.986-45.834-7.368
		c-0.427,0.312-0.853,0.64-1.264,0.968c-14.687,11.389-28.767,23.549-42.174,36.431c-23.138,24.451-15.097,64.656,0,100.923
		C64.274,332.964,179.638,445.703,295.002,497.067z"/>
</g>
<g>
</g>
<g>
</g>
<g>
</g>
<g>
</g>
<g>
</g>
<g>
</g>
<g>
</g>
<g>
</g>
<g>
</g>
<g>
</g>
<g>
</g>
<g>
</g>
<g>
</g>
<g>
</g>
<g>
</g>
</svg>
