<svg id="Capa_1" data-name="Capa 1" xmlns="http://www.w3.org/2000/svg" viewBox="0 0 40.43 50"><title>delete</title><path d="M39.51,6H31.72A6.77,6.77,0,0,0,18.28,6H10.5A5.72,5.72,0,0,0,4.78,11.7V12A5.72,5.72,0,0,0,8.39,17.3v27A5.72,5.72,0,0,0,14.11,50H35.9a5.72,5.72,0,0,0,5.71-5.71v-27A5.72,5.72,0,0,0,45.22,12V11.7A5.72,5.72,0,0,0,39.51,6ZM25,2.71A4.07,4.07,0,0,1,29,6H21A4.07,4.07,0,0,1,25,2.71ZM38.9,44.29a3,3,0,0,1-3,3H14.11a3,3,0,0,1-3-3V17.71H38.9ZM42.51,12a3,3,0,0,1-3,3h-29a3,3,0,0,1-3-3V11.7a3,3,0,0,1,3-3h29a3,3,0,0,1,3,3V12Z" transform="translate(-4.78 0)"/><path d="M17.74,43.83a1.35,1.35,0,0,0,1.35-1.35V27.22a1.35,1.35,0,1,0-2.71,0V42.47A1.35,1.35,0,0,0,17.74,43.83Z" transform="translate(-4.78 0)"/><path d="M25,43.83a1.35,1.35,0,0,0,1.35-1.35V27.22a1.35,1.35,0,1,0-2.71,0V42.47A1.35,1.35,0,0,0,25,43.83Z" transform="translate(-4.78 0)"/><path d="M32.26,43.83a1.35,1.35,0,0,0,1.35-1.35V27.22a1.35,1.35,0,1,0-2.71,0V42.47A1.35,1.35,0,0,0,32.26,43.83Z" transform="translate(-4.78 0)"/></svg>