<?xml version="1.0" encoding="utf-8"?>
<!-- Generator: Adobe Illustrator 22.0.1, SVG Export Plug-In . SVG Version: 6.00 Build 0)  -->
<svg version="1.1" id="Capa_1" xmlns="http://www.w3.org/2000/svg" xmlns:xlink="http://www.w3.org/1999/xlink" x="0px" y="0px"
	 viewBox="0 0 512 468.9" style="enable-background:new 0 0 512 468.9;" xml:space="preserve">
<style type="text/css">
	.st0{fill:#FFFFFF;}
</style>
<path class="st0" d="M510.5,7.9c-2.6-5.4-8-8.9-14-8.9h-481C9.5-1,4,2.5,1.5,7.9c-2.6,5.4-1.8,11.9,2.1,16.5l184.9,224.2v206.8
	c0,5.4,2.8,10.4,7.3,13.2c2.5,1.5,5.3,2.3,8.2,2.3c2.4,0,4.7-0.5,6.9-1.6l103.9-51.5c5.3-2.6,8.6-8,8.6-13.9l0.2-155.3L508.5,24.4
	C512.3,19.8,513.1,13.3,510.5,7.9z M296.1,233.2c-2.3,2.8-3.5,6.3-3.5,9.9l-0.2,151.3l-72.9,36.1V243.1c0-3.6-1.3-7.1-3.5-9.9
	L48.4,30h415.2L296.1,233.2z"/>
</svg>
