<?xml version="1.0" encoding="utf-8"?>
<!-- Generator: Adobe Illustrator 22.0.1, SVG Export Plug-In . SVG Version: 6.00 Build 0)  -->
<svg version="1.1" id="Capa_1" xmlns="http://www.w3.org/2000/svg" xmlns:xlink="http://www.w3.org/1999/xlink" x="0px" y="0px"
	 viewBox="0 0 512 512" style="enable-background:new 0 0 512 512;" xml:space="preserve">
<style type="text/css">
	.st0{fill:#FFFFFF;stroke:#FFFFFF;stroke-width:5;stroke-miterlimit:10;}
</style>
<g>
	<g id="Shape_379">
		<g>
			<path class="st0" d="M505.7,249.9L262,6.7c-3.3-3.3-8.6-3.3-11.9,0L6.4,249.9c-3.3,3.3-3.2,8.5,0,11.9c1.6,1.7,3.8,2.6,5.9,2.6v0
				h58.8v235c0,2.3,0.9,4.4,2.5,5.9c1.5,1.5,3.6,2.5,5.9,2.5h117.6c4.6,0,8.4-3.8,8.4-8.4V331.5h100.8v167.8c0,4.6,3.8,8.4,8.4,8.4
				h117.6c4.6,0,8.4-3.8,8.4-8.4v-235H500c2.2,0,4.3-0.8,5.7-2.6C508.6,258.1,509,253.1,505.7,249.9z M432.4,247v0.6
				c-1.2,0-2.3,0.2-3.3,0.6c-3,1.3-5.1,4.3-5.1,7.7v234.9H323.2V323.1c0-4.6-3.8-8.4-8.4-8.4H197.2c-4.6,0-8.4,3.8-8.4,8.4v167.8H88
				V256c0-3.5-2.1-6.5-5.1-7.7c-1-0.4-2.1-0.6-3.3-0.6v-0.3l-46.8,0L256.1,24.5L479,247L432.4,247z"/>
		</g>
	</g>
</g>
</svg>
