<?xml version="1.0" encoding="utf-8"?>
<!-- Generator: Adobe Illustrator 22.0.1, SVG Export Plug-In . SVG Version: 6.00 Build 0)  -->
<svg version="1.1" id="Capa_1" xmlns="http://www.w3.org/2000/svg" xmlns:xlink="http://www.w3.org/1999/xlink" x="0px" y="0px"
	 viewBox="0 0 512 512" style="enable-background:new 0 0 512 512;" xml:space="preserve">
<style type="text/css">
	.st0{display:none;}
	.st1{display:inline;}
	.st2{fill:#FFFFFF;}
</style>
<g class="st0">
	<g class="st1">
		<path class="st2" d="M475.1,497.2l-43.8-39.8c7.8-11.1,12.4-24.6,12.4-39.2c0-37.6-30.6-68.3-68.3-68.3c-5.1,0-10,0.6-14.8,1.6
			l-50.3-27.4c-7.3-4-11.8-11.5-11.8-19.8V276c5.7-7.5,22.1-30.8,29.9-61.8c8.1-6.5,12.8-16.2,12.8-26.5v-34.1
			c0-8.2-3.1-16.2-8.5-22.4V85.8c0.5-4.7,2.3-32.6-17.9-55.7C297.4,10.1,269,0,230.4,0c-38.6,0-67,10.1-84.5,30.1
			c-20.2,23-18.3,51-17.9,55.7v45.4c-5.5,6.2-8.5,14.2-8.5,22.4v34.1c0,10.4,4.7,20.1,12.8,26.5c7.8,30.9,24.2,54.3,29.9,61.8v28.2
			c0,8.3-4.5,15.8-11.8,19.8l-76.1,41.5c-24.7,13.5-40.1,39.4-40.1,67.6v36.2c0,4.7,3.8,8.5,8.5,8.5h299.8c9.8,5.4,21,8.5,33,8.5
			c16.9,0,32.4-6.2,44.3-16.4l43.8,39.8c1.6,1.5,3.7,2.2,5.7,2.2c2.3,0,4.6-0.9,6.3-2.8C478.8,505.7,478.6,500.3,475.1,497.2z
			 M51.2,433.2c0-21.9,12-42.1,31.2-52.6l76.1-41.5c12.7-6.9,20.7-20.3,20.7-34.8v-31.2c0-2-0.7-3.9-2-5.5
			c-0.2-0.2-21.2-25.7-29.1-60.3c-0.5-2.2-1.8-4.1-3.7-5.3c-4.9-3.2-7.9-8.6-7.9-14.3v-34.1c0-4.8,2-9.3,5.7-12.6
			c1.8-1.6,2.8-3.9,2.8-6.3V85.3c0-0.4,0-0.7-0.1-1.1c0-0.2-2.9-23.9,13.7-42.8c14.1-16.1,38.3-24.3,71.7-24.3
			c33.3,0,57.4,8.1,71.6,24.1c16.6,18.8,13.9,42.8,13.9,43c-0.1,0.4-0.1,0.7-0.1,1.1v49.3c0,2.4,1,4.7,2.8,6.3
			c3.7,3.3,5.7,7.8,5.7,12.6v34.1c0,5.8-3,11.1-7.9,14.3c-1.9,1.2-3.2,3.1-3.7,5.3c-7.9,34.6-28.9,60-29.1,60.3
			c-1.3,1.5-2,3.5-2,5.5v31.2c0,14.5,7.9,27.8,20.7,34.8l37.9,20.7c-19.7,12-33,33.7-33,58.4c0,16.1,5.6,31,15,42.7h-271V433.2z
			 M349.8,462.4c-0.4-0.3-0.8-0.5-1.2-0.7c-14.6-9-24.3-25.2-24.3-43.5c0-23.2,15.6-42.9,36.8-49.1c0.6-0.1,1.1-0.3,1.6-0.5
			c4.1-1,8.3-1.6,12.7-1.6c28.2,0,51.2,23,51.2,51.2c0,13-4.9,24.9-12.9,33.9c-0.2,0.1-0.3,0.3-0.5,0.5c-0.1,0.2-0.3,0.3-0.4,0.5
			c-9.4,10-22.7,16.3-37.4,16.3C366.1,469.3,357.3,466.8,349.8,462.4z"/>
	</g>
</g>
<g>
	<path class="st2" d="M507.5,485.9L383.1,361.5c33.4-38.4,53.6-88.4,53.6-143.2C436.7,97.9,338.7,0,218.4,0C97.9,0,0.1,98,0.1,218.3
		s98,218.3,218.3,218.3c54.7,0,104.8-20.2,143.2-53.6l124.4,124.4c3,3,6.9,4.5,10.8,4.5s7.8-1.5,10.8-4.5
		C513.4,501.6,513.4,491.8,507.5,485.9z M30.6,218.3c0-103.5,84.2-187.7,187.7-187.7c103.5,0,187.7,84.2,187.7,187.7
		s-84.1,187.8-187.7,187.8C114.8,406.1,30.6,321.8,30.6,218.3z"/>
</g>
</svg>
