<?xml version="1.0" encoding="utf-8"?>
<!-- Generator: Adobe Illustrator 21.0.0, SVG Export Plug-In . SVG Version: 6.00 Build 0)  -->
<svg version="1.1" id="Capa_1" xmlns="http://www.w3.org/2000/svg" xmlns:xlink="http://www.w3.org/1999/xlink" x="0px" y="0px"
	 viewBox="0 0 539.1 539.1" style="enable-background:new 0 0 539.1 539.1;" xml:space="preserve">
<style type="text/css">
	.st0{fill:#DDA928;}
	.st1{display:none;fill:#DDA928;}
</style>
<path class="st0" d="M78.6,494.2c-1.4,0-2.9-0.3-4.3-0.9c-4.2-1.7-6.9-5.8-6.9-10.4v-78.6H33.7C15.1,404.3,0,389.2,0,370.6v-292
	C0,60,15.1,44.9,33.7,44.9h471.7c18.6,0,33.7,15.1,33.7,33.7v292c0,18.6-15.1,33.7-33.7,33.7H173.1l-86.6,86.6
	C84.4,493,81.5,494.2,78.6,494.2z M33.7,67.4c-6.2,0-11.2,5-11.2,11.2v292c0,6.2,5,11.2,11.2,11.2h44.9c6.2,0,11.2,5,11.2,11.2v62.7
	l70.7-70.7c2.1-2.1,5-3.3,7.9-3.3h336.9c6.2,0,11.2-5,11.2-11.2v-292c0-6.2-5-11.2-11.2-11.2L33.7,67.4L33.7,67.4z"/>
<path class="st1" d="M190.9,247.1c-12.4,0-22.5-10.1-22.5-22.5s10.1-22.5,22.5-22.5s22.5,10.1,22.5,22.5S203.3,247.1,190.9,247.1z"
	/>
<path class="st1" d="M370.6,247.1c-12.4,0-22.5-10.1-22.5-22.5s10.1-22.5,22.5-22.5s22.5,10.1,22.5,22.5S383,247.1,370.6,247.1z"/>
<path class="st1" d="M280.8,247.1c-12.4,0-22.5-10.1-22.5-22.5s10.1-22.5,22.5-22.5s22.5,10.1,22.5,22.5
	C303.2,237,293.2,247.1,280.8,247.1z"/>
<g>
	<path class="st0" d="M125,263.1c6.8,4.2,16.7,7.7,27.1,7.7c15.5,0,24.5-8.2,24.5-20c0-11-6.3-17.2-22.1-23.3
		c-19.1-6.8-31-16.7-31-33.2c0-18.3,15.1-31.8,37.9-31.8c12,0,20.7,2.8,25.9,5.7l-4.2,12.4c-3.8-2.1-11.7-5.6-22.3-5.6
		c-16,0-22.1,9.6-22.1,17.6c0,11,7.1,16.4,23.3,22.6c19.8,7.7,29.9,17.2,29.9,34.5c0,18.1-13.4,33.8-41.1,33.8
		c-11.3,0-23.7-3.3-29.9-7.5L125,263.1z"/>
	<path class="st0" d="M311.7,230c-0.9-16.4-1.9-36-1.7-50.6h-0.5c-4,13.7-8.9,28.4-14.8,44.5L274,280.9h-11.5l-19-55.9
		c-5.6-16.5-10.3-31.7-13.6-45.6h-0.3c-0.3,14.6-1.2,34.3-2.3,51.9l-3.1,50.3h-14.4l8.2-117.3h19.3l20,56.7
		c4.9,14.4,8.9,27.3,11.8,39.5h0.5c3-11.8,7.1-24.7,12.4-39.5l20.9-56.7h19.3l7.3,117.3h-14.8L311.7,230z"/>
	<path class="st0" d="M350.7,263.1c6.8,4.2,16.7,7.7,27.1,7.7c15.5,0,24.5-8.2,24.5-20c0-11-6.3-17.2-22.1-23.3
		c-19.1-6.8-31-16.7-31-33.2c0-18.3,15.1-31.8,37.9-31.8c12,0,20.7,2.8,25.9,5.7l-4.2,12.4c-3.8-2.1-11.7-5.6-22.3-5.6
		c-16,0-22.1,9.6-22.1,17.6c0,11,7.1,16.4,23.3,22.6c19.8,7.7,29.9,17.2,29.9,34.5c0,18.1-13.4,33.8-41.1,33.8
		c-11.3,0-23.7-3.3-29.9-7.5L350.7,263.1z"/>
</g>
</svg>
